<?xml version="1.0" standalone="no"?>
<!DOCTYPE svg PUBLIC "-//W3C//DTD SVG 20010904//EN"
 "http://www.w3.org/TR/2001/REC-SVG-20010904/DTD/svg10.dtd">
<svg version="1.0" xmlns="http://www.w3.org/2000/svg"
 width="354.000000pt" height="354.000000pt" viewBox="0 0 354.000000 354.000000"
 preserveAspectRatio="xMidYMid meet">
<metadata>
Created by potrace 1.14, written by Peter Selinger 2001-2017
</metadata>
<g transform="translate(0.000000,354.000000) scale(0.100000,-0.100000)"
fill="#000000" stroke="none">
<path d="M1700 3490 c-7 -4 -11 -11 -11 -16 1 -5 -28 -10 -64 -12 -49 -2 -65
-7 -65 -17 0 -15 -43 -20 -127 -15 -27 1 -33 -2 -33 -19 0 -12 -3 -20 -7 -20
-23 4 -35 -3 -29 -16 4 -10 -1 -15 -14 -15 -11 0 -20 -7 -20 -15 0 -8 -7 -15
-15 -15 -10 0 -15 -10 -15 -34 0 -25 -4 -33 -17 -33 -42 0 -54 -4 -48 -14 4
-6 -2 -13 -14 -16 -12 -3 -21 -12 -21 -19 0 -8 -7 -14 -15 -14 -8 0 -15 -6
-15 -13 0 -7 -9 -18 -21 -25 -11 -7 -18 -18 -16 -25 6 -16 -12 -49 -22 -42 -5
2 -11 -5 -14 -16 -3 -12 -10 -18 -16 -14 -7 4 -11 -11 -11 -44 0 -44 -3 -51
-20 -51 -13 0 -18 -5 -13 -16 4 -10 -2 -17 -16 -21 -18 -4 -22 -12 -21 -37 3
-56 1 -66 -15 -60 -13 5 -15 -8 -15 -80 0 -70 -3 -86 -15 -86 -21 0 -19 -30 3
-31 9 0 119 -1 245 -1 212 0 227 -1 227 -18 0 -14 7 -18 32 -16 23 1 33 -3 33
-14 0 -9 12 -16 30 -18 17 -2 34 -10 38 -18 4 -8 21 -14 37 -14 19 0 29 -5 27
-12 -1 -9 10 -13 33 -13 23 0 34 4 33 13 -2 6 5 12 16 12 11 0 21 9 24 21 3
12 10 18 16 14 6 -3 11 2 11 13 0 12 7 19 18 19 40 0 52 4 49 15 -1 6 6 13 15
16 16 3 17 -20 15 -310 l-2 -313 -47 0 c-51 -1 -54 3 -48 73 1 13 -4 22 -13
22 -19 0 -24 15 -21 63 1 30 -2 37 -17 37 -15 0 -18 6 -15 23 5 26 -6 51 -20
45 -5 -1 -10 12 -12 30 -2 20 -9 32 -18 32 -8 0 -14 9 -14 21 0 11 -4 18 -9
15 -13 -8 -29 16 -26 42 1 16 -4 22 -17 22 -11 0 -16 5 -13 11 4 6 -2 13 -14
16 -12 3 -21 13 -21 24 0 15 -7 19 -36 19 -28 0 -35 3 -30 15 4 12 -3 15 -29
15 -24 0 -35 5 -35 15 0 12 -14 15 -64 15 -54 0 -66 3 -70 18 -5 15 -18 18
-82 19 -67 0 -77 -2 -81 -18 -5 -16 -15 -19 -69 -19 -50 0 -64 -3 -64 -15 0
-8 -7 -15 -15 -15 -11 0 -15 -12 -15 -50 0 -43 -3 -50 -17 -48 -15 3 -18 -6
-18 -62 0 -54 -3 -65 -17 -68 -16 -3 -18 -20 -18 -183 0 -149 2 -179 14 -179
8 0 17 -9 21 -19 5 -15 13 -19 36 -16 23 3 29 0 29 -16 0 -16 7 -19 50 -19 38
0 50 -4 50 -15 0 -12 14 -15 64 -15 54 0 64 -3 69 -19 3 -14 13 -18 46 -16 31
1 44 -3 51 -16 8 -14 21 -17 66 -15 48 2 58 0 62 -16 3 -13 14 -18 39 -18 19
0 32 -4 28 -9 -9 -15 15 -24 57 -23 28 1 38 -2 38 -13 0 -14 12 -19 33 -16 4
0 7 -8 7 -19 0 -16 7 -20 36 -20 28 0 35 -3 30 -15 -4 -10 1 -15 16 -15 12 0
18 -3 15 -7 -13 -12 14 -31 39 -27 22 4 24 1 24 -31 0 -28 4 -35 20 -35 12 0
17 -5 14 -14 -3 -8 3 -16 15 -19 16 -4 21 -13 21 -36 0 -21 5 -31 15 -31 10 0
15 -10 15 -29 0 -19 6 -32 18 -35 16 -5 17 -25 16 -243 -2 -276 -1 -254 -16
-251 -9 2 -14 -13 -16 -45 -2 -33 -7 -47 -18 -47 -9 0 -14 -11 -14 -34 0 -26
-5 -35 -21 -39 -16 -4 -19 -11 -14 -26 4 -14 0 -24 -14 -33 -12 -7 -21 -18
-21 -25 0 -7 -7 -13 -15 -13 -8 0 -15 -7 -15 -15 0 -8 -6 -15 -14 -15 -8 0
-18 -9 -21 -20 -4 -11 -10 -18 -15 -15 -5 3 -11 -4 -15 -15 -3 -11 -13 -20
-21 -20 -8 0 -14 -7 -14 -15 0 -8 -7 -15 -15 -15 -8 0 -15 -8 -15 -19 0 -15
-6 -18 -30 -15 -21 3 -32 -2 -40 -16 -6 -11 -19 -18 -33 -17 -12 1 -23 -1 -24
-5 -7 -21 0 -28 27 -28 20 0 30 -5 30 -15 0 -16 5 -16 104 -17 46 -1 59 -4 63
-18 4 -14 18 -17 95 -16 90 1 113 -3 106 -20 -1 -5 12 -10 30 -12 20 -2 32 -9
32 -18 0 -8 6 -14 14 -14 7 0 16 -9 19 -20 4 -14 11 -18 31 -14 19 3 28 -1 34
-14 5 -14 18 -18 52 -19 74 -1 80 -2 80 -18 0 -12 19 -15 115 -15 96 0 115 -3
115 -15 0 -10 10 -15 29 -15 19 0 30 -6 33 -18 4 -15 15 -18 68 -17 52 0 64
-3 68 -17 4 -15 16 -18 68 -18 54 0 64 3 64 18 0 15 9 17 65 16 56 0 65 2 65
18 0 10 6 18 14 18 8 0 16 7 20 15 3 9 18 15 36 15 27 0 30 3 30 30 0 18 6 33
15 36 20 8 20 64 0 64 -10 0 -15 10 -15 34 0 25 -5 35 -20 39 -16 4 -19 11
-15 30 5 19 2 25 -15 30 -11 3 -20 9 -19 14 5 27 -3 53 -16 53 -12 0 -15 14
-15 64 0 54 -3 64 -19 69 -13 3 -18 12 -16 32 3 20 -2 29 -16 32 -10 3 -16 10
-13 15 3 5 -3 12 -15 15 -12 3 -21 12 -21 19 0 8 -7 14 -15 14 -8 0 -15 8 -15
18 0 14 -7 18 -32 18 -33 -1 -33 -1 -33 49 0 36 4 50 14 50 23 0 24 23 2 30
-18 5 -21 15 -21 56 0 33 -4 48 -11 44 -6 -4 -13 2 -16 13 -2 11 -14 23 -25
25 -11 3 -17 10 -14 15 3 5 -3 12 -14 15 -11 3 -20 12 -20 21 0 10 -6 13 -15
10 -10 -4 -15 0 -15 15 0 12 -6 20 -12 19 -10 -2 -14 20 -16 80 -2 45 -7 82
-12 82 -19 0 -90 82 -90 105 0 15 -7 26 -20 30 -11 3 -20 13 -20 21 0 8 -7 14
-16 14 -10 0 -14 6 -10 15 4 10 -1 15 -14 15 -11 0 -20 7 -20 15 0 8 7 15 15
15 8 0 16 6 16 13 1 6 2 17 4 22 1 6 3 15 3 22 2 7 26 10 78 9 67 -3 77 -1 82
16 3 13 14 18 38 18 24 0 32 4 28 14 -3 8 3 16 16 19 12 3 19 10 16 15 -7 12
11 20 42 17 15 -1 22 4 22 17 0 11 7 18 20 18 12 0 17 5 14 14 -3 8 3 16 15
19 17 4 21 13 21 51 0 40 -3 46 -21 46 -15 0 -19 5 -15 15 4 10 -1 15 -15 15
-14 0 -19 5 -17 18 2 9 10 16 16 14 14 -2 14 2 16 78 1 42 5 55 16 55 9 0 16
11 18 31 2 25 -1 33 -18 37 -13 3 -18 10 -14 21 3 9 10 13 16 10 5 -3 12 4 15
16 4 15 13 21 32 20 57 -4 73 0 67 15 -4 10 1 15 14 15 17 0 20 7 20 49 0 41
-3 50 -21 54 -12 3 -18 10 -15 15 3 5 -3 12 -14 15 -11 3 -19 11 -18 18 2 7
-4 13 -12 14 -9 0 -16 12 -18 33 -2 20 -9 32 -18 32 -8 0 -14 7 -14 15 0 8 -6
15 -14 15 -8 0 -18 9 -21 20 -3 11 -13 20 -21 20 -8 0 -14 7 -14 15 0 8 -7 15
-15 15 -11 0 -15 12 -15 50 0 41 -3 50 -18 50 -16 0 -18 9 -16 80 1 65 -2 80
-15 82 -9 2 -17 13 -17 26 -2 39 -4 42 -19 42 -11 0 -15 12 -15 50 0 38 -4 50
-15 50 -10 0 -15 11 -15 35 0 27 -3 33 -16 28 -10 -4 -17 1 -21 16 -3 11 -12
21 -19 21 -8 0 -14 7 -14 15 0 8 -7 15 -15 15 -8 0 -15 7 -15 15 0 8 -6 15
-14 15 -8 0 -18 9 -21 20 -4 11 -10 18 -15 15 -5 -3 -11 4 -15 15 -3 11 -13
20 -21 20 -8 0 -14 7 -14 15 0 8 -6 15 -14 15 -7 0 -16 9 -19 20 -3 11 -11 19
-19 18 -7 -2 -12 3 -10 10 2 12 -1 14 -40 16 -13 0 -24 9 -26 19 -2 9 -12 17
-24 17 -14 0 -18 5 -14 15 4 11 -2 15 -28 15 -25 0 -35 5 -39 20 -4 14 -12 19
-33 17 -20 -1 -29 3 -29 13 0 11 -14 16 -52 18 -41 2 -51 6 -46 18 4 11 -5 14
-46 14 -37 0 -51 4 -51 14 0 15 -25 24 -52 18 -10 -2 -18 -10 -18 -18 0 -8 -7
-14 -15 -14 -8 0 -15 6 -15 14 0 15 -43 27 -60 16z m-301 -1099 l-2 -49 -46 1
c-25 0 -48 4 -51 8 -3 5 -4 26 -2 49 l4 40 49 0 49 0 -1 -49z m-37 -261 c-1
-6 7 -14 18 -17 17 -4 20 -12 18 -36 -3 -29 -5 -31 -50 -32 -48 -1 -48 -1 -48
32 0 21 5 33 14 33 7 0 16 9 19 21 6 22 34 21 29 -1z"/>
<path d="M610 1670 c0 -36 -4 -50 -14 -50 -8 0 -16 7 -20 15 -11 30 -36 17
-36 -20 0 -26 -3 -33 -15 -29 -12 5 -15 -2 -15 -30 0 -28 4 -36 18 -36 14 0
16 -8 14 -49 -4 -48 -5 -50 -35 -53 -31 -3 -32 -5 -32 -48 0 -33 4 -45 15 -45
22 0 25 -33 3 -37 -12 -2 -17 -13 -18 -33 0 -20 -5 -30 -15 -30 -8 -1 -14 -7
-12 -14 1 -7 -7 -15 -18 -18 -15 -4 -20 -14 -20 -39 0 -24 4 -32 14 -28 23 9
28 -14 6 -28 -12 -8 -20 -23 -20 -40 0 -18 -5 -28 -15 -28 -10 0 -15 -11 -15
-35 0 -24 5 -35 15 -35 10 0 15 -11 15 -35 0 -22 -4 -34 -12 -32 -6 1 -13 -5
-15 -14 -3 -14 9 -16 94 -15 l98 1 2 70 c1 39 2 76 2 83 1 7 15 12 34 12 32 0
33 -1 29 -37 -4 -30 -2 -35 12 -30 18 7 18 6 19 -75 0 -50 3 -58 19 -58 10 0
18 -7 18 -15 0 -8 7 -15 15 -15 11 0 15 -12 15 -50 0 -38 4 -50 15 -50 8 0 15
-6 15 -14 0 -8 9 -18 20 -21 11 -3 20 -13 20 -21 0 -8 7 -14 15 -14 8 0 15 -7
15 -15 0 -8 7 -15 15 -15 8 0 15 -6 15 -14 0 -7 9 -16 20 -19 14 -4 18 -10 13
-23 -5 -14 -3 -16 11 -11 13 5 19 1 23 -13 3 -11 12 -20 19 -20 8 0 14 -7 14
-15 0 -10 11 -15 35 -15 19 0 34 -3 34 -8 -4 -23 5 -28 46 -27 41 2 49 -3 47
-26 -1 -3 60 -5 134 -5 117 0 134 3 134 17 0 12 10 16 38 16 58 1 62 2 62 18
0 10 10 15 30 15 20 0 30 5 30 15 0 8 6 15 14 15 8 0 17 9 21 19 4 12 12 18
21 14 9 -3 14 2 14 16 0 12 6 21 15 21 8 0 15 6 15 14 0 7 9 16 21 19 12 3 18
10 15 16 -4 5 3 13 14 16 12 4 20 14 19 23 -3 32 1 42 17 42 11 0 15 8 14 28
-4 53 0 72 15 72 10 0 15 11 16 33 0 17 1 53 2 80 2 39 -1 47 -15 47 -14 0
-18 9 -19 38 -1 20 -1 42 0 48 1 7 -8 14 -20 17 -12 3 -18 10 -14 16 9 16 -4
51 -18 48 -7 -1 -11 4 -9 11 1 8 -7 16 -18 19 -11 3 -20 12 -20 19 0 8 -7 14
-15 14 -8 0 -15 9 -15 19 0 15 -6 19 -31 17 -23 -2 -33 3 -36 15 -3 11 -17 19
-37 21 -18 2 -30 8 -29 16 2 8 -9 12 -31 12 -24 0 -35 5 -38 18 -4 14 -14 18
-48 16 -33 -1 -44 2 -47 16 -4 13 -14 17 -44 15 -30 -2 -43 2 -52 16 -10 16
-24 19 -89 19 -63 0 -78 3 -78 15 0 13 -23 20 -56 16 -7 -1 -14 7 -17 18 -3
14 -12 19 -31 17 -23 -3 -31 4 -27 27 0 4 -15 7 -34 7 -24 0 -35 5 -35 15 0 8
-7 15 -15 15 -8 0 -15 7 -15 15 0 14 -18 20 -48 16 -8 -1 -16 7 -19 19 -3 13
-11 19 -19 16 -9 -3 -14 2 -14 14 0 11 -7 20 -15 20 -10 0 -15 11 -15 35 0 19
-3 34 -7 34 -21 -3 -33 2 -33 16 0 10 -10 15 -30 15 -29 0 -30 -1 -30 -50z
m720 -660 c0 -13 5 -18 15 -14 10 4 15 0 15 -15 0 -12 -6 -21 -15 -21 -8 0
-15 -7 -15 -15 0 -10 -10 -15 -30 -15 -32 0 -32 0 -32 45 -1 52 1 55 32 55 23
0 30 -4 30 -20z m0 -294 c0 -7 9 -16 20 -19 13 -3 18 -10 14 -21 -3 -9 -10
-13 -16 -10 -5 3 -12 -3 -14 -13 -4 -14 -15 -20 -35 -21 -30 -1 -31 1 -31 63
0 14 0 27 1 30 1 3 15 5 31 5 19 0 30 -5 30 -14z"/>
</g>
</svg>
